
1.47k → 504 bytes 33.51%
<svg xmlns="http://www.w3.org/2000/svg" viewBox="0 0 305.04 305.04">
  <circle cx="152.52" cy="152.52" r="150" fill="#fff" stroke="#000" stroke-linecap="round" stroke-width="5.04"/>
  <path d="M217.78 109.34c-6.29 40.74-42.15 73.95-99.17 69.57 4.83-22.36 27.04-30.08 45.08-41.3-15.75 7.51-48.13 19-51.52 36.41-3.5 17.96 6.29 71 57.76 127.57H130.6c-27.73-78.86-25.98-117.82-23.01-138.51 0 0 1.38-6.15 2.39-9 .28-.78.6-1.55.92-2.31.18-.57.36-1.15.5-1.74 2.37-9.91-12.27-21.38-18.93-27.99 7 8.99 17.08 16.75 14.28 29.57-31.7-6.96-42.97-30.66-36.54-53.6 1.68-6 5.38-12.04 10.1-15.51-2.86 8.48 5.25 14.55 11.93 19.89 5.68 4.54 11.18 8.73 15.64 13.38 6.98 7.3 10.4 15.27 9.42 24.58 6.17-8.39 14.84-15.15 25.79-20.69 10.7-5.4 22.77-9.5 35.42-14.13 14.85-5.43 32.6-11.32 34.13-26.63 5.17 8.02 6.8 19.75 5.15 30.44z"/>
</svg>