<svg xmlns="http://www.w3.org/2000/svg" viewBox="0 0 300 300">
  <path fill="#fff" d="M150 0A150 150.61 0 0 0 0 150.61a150 150.61 0 0 0 127.82 148.9c-27.44-78.64-25.71-117.59-22.75-138.3 0 0 1.38-6.17 2.4-9.03.27-.78.6-1.56.91-2.32.18-.57.36-1.16.5-1.75 2.37-9.95-12.27-21.46-18.93-28.1 7 9.02 17.08 16.82 14.28 29.69-31.7-6.99-42.97-30.79-36.54-53.82 1.68-6.02 5.38-12.09 10.1-15.57-2.86 8.51 5.25 14.6 11.93 19.98 5.68 4.55 11.18 8.75 15.64 13.42 6.98 7.33 10.4 15.33 9.42 24.68 6.17-8.42 14.84-15.2 25.79-20.77 10.7-5.42 22.77-9.54 35.42-14.19 14.85-5.45 32.6-11.37 34.13-26.74 5.17 8.05 6.8 19.83 5.15 30.57h-.01c-6.29 40.9-42.15 74.25-99.17 69.85 4.83-22.45 27.04-30.2 45.08-41.47-15.75 7.54-48.13 19.08-51.52 36.56-3.5 18 6.26 71.1 57.5 127.8A150 150.61 0 0 0 300 150.61 150 150.61 0 0 0 150 0Z"/>
</svg>
